<svg xmlns="http://www.w3.org/2000/svg" xmlns:xlink="http://www.w3.org/1999/xlink" width="1080" zoomAndPan="magnify" viewBox="0 0 810 809.999993" height="500" preserveAspectRatio="xMidYMid meet" version="1.0"><defs><filter x="0%" y="0%" width="100%" height="100%" id="d0b7a9c35f"><feColorMatrix values="0 0 0 0 1 0 0 0 0 1 0 0 0 0 1 0 0 0 1 0" color-interpolation-filters="sRGB"/></filter><filter x="0%" y="0%" width="100%" height="100%" id="297254318a"><feColorMatrix values="0 0 0 0 1 0 0 0 0 1 0 0 0 0 1 0.2126 0.7152 0.0722 0 0" color-interpolation-filters="sRGB"/></filter><g/><clipPath id="9d53dbf87d"><path d="M 52 295.441406 L 230 295.441406 L 230 480.691406 L 52 480.691406 Z M 52 295.441406 " clip-rule="nonzero"/></clipPath><image x="0" y="0" width="434" id="3a358c42a6" height="450" preserveAspectRatio="xMidYMid meet"/><mask id="cebac977c2"><g filter="url(#d0b7a9c35f)"><g filter="url(#297254318a)" transform="matrix(0.41129, 0, 0, 0.411667, 51.857139, 295.442708)"><image x="0" y="0" width="434" height="450" preserveAspectRatio="xMidYMid meet"/></g></g></mask><image x="0" y="0" width="434" id="b941613c27" height="450" preserveAspectRatio="xMidYMid meet"/></defs><g clip-path="url(#9d53dbf87d)"><g mask="url(#cebac977c2)"><g transform="matrix(0.41129, 0, 0, 0.411667, 51.857139, 295.442708)"><image x="0" y="0" width="434" height="450" preserveAspectRatio="xMidYMid meet"/></g></g></g><g fill="#FFFFFF" fill-opacity="1"><g transform="translate(171.123042, 442.664059)"><g><path d="M 2.59375 -12.21875 C 10.78125 -4.03125 22.75 1.5625 39.390625 1.5625 C 62.78125 1.5625 74.09375 -10.40625 74.09375 -26.25 C 74.09375 -45.5 55.890625 -49.78125 41.59375 -53.03125 C 31.59375 -55.375 24.3125 -57.1875 24.3125 -63.046875 C 24.3125 -68.234375 28.71875 -71.875 37.046875 -71.875 C 45.5 -71.875 54.859375 -68.890625 61.875 -62.390625 L 72.140625 -75.90625 C 63.5625 -83.84375 52.125 -88 38.34375 -88 C 17.9375 -88 5.453125 -76.296875 5.453125 -61.875 C 5.453125 -42.5 23.65625 -38.609375 37.828125 -35.359375 C 47.828125 -33.015625 55.375 -30.8125 55.375 -24.3125 C 55.375 -19.375 50.4375 -14.5625 40.296875 -14.5625 C 28.34375 -14.5625 18.84375 -19.890625 12.734375 -26.25 Z M 2.59375 -12.21875 "/></g></g></g><g fill="#FFFFFF" fill-opacity="1"><g transform="translate(249.106662, 442.664059)"><g><path d="M 80.84375 0 L 99.953125 -62.78125 L 82.796875 -62.78125 L 71.09375 -20.53125 L 57.328125 -62.78125 L 42.640625 -62.78125 L 28.859375 -20.53125 L 17.15625 -62.78125 L 0 -62.78125 L 19.109375 0 L 36.78125 0 L 50.046875 -42.765625 L 63.296875 0 Z M 80.84375 0 "/></g></g></g><g fill="#FFFFFF" fill-opacity="1"><g transform="translate(349.055658, 442.664059)"><g><path d="M 16.375 -72.015625 C 21.84375 -72.015625 26.25 -76.4375 26.25 -81.890625 C 26.25 -87.34375 21.84375 -91.765625 16.375 -91.765625 C 11.046875 -91.765625 6.5 -87.34375 6.5 -81.890625 C 6.5 -76.4375 11.046875 -72.015625 16.375 -72.015625 Z M 24.703125 0 L 24.703125 -62.78125 L 8.1875 -62.78125 L 8.1875 0 Z M 24.703125 0 "/></g></g></g><g fill="#FFFFFF" fill-opacity="1"><g transform="translate(381.938744, 442.664059)"><g><path d="M 41.203125 -48.359375 L 41.203125 -62.78125 L 28.46875 -62.78125 L 28.46875 -65.90625 C 28.46875 -71.875 31.59375 -75 36.265625 -75 C 38.21875 -75 40.171875 -74.609375 41.59375 -73.703125 L 44.96875 -85.40625 C 41.984375 -86.953125 37.703125 -88 33.015625 -88 C 20.671875 -88 11.828125 -79.8125 11.828125 -66.15625 L 11.828125 -62.78125 L 1.4375 -62.78125 L 1.4375 -48.359375 L 11.828125 -48.359375 L 11.828125 0 L 28.46875 0 L 28.46875 -48.359375 Z M 41.203125 -48.359375 "/></g></g></g><g fill="#FFFFFF" fill-opacity="1"><g transform="translate(424.43981, 442.664059)"><g><path d="M 29.25 1.5625 C 36.140625 1.5625 40.5625 -0.265625 43.03125 -2.46875 L 39.515625 -14.953125 C 38.609375 -14.03125 36.265625 -13.125 33.796875 -13.125 C 30.15625 -13.125 28.078125 -16.125 28.078125 -20.015625 L 28.078125 -48.359375 L 40.8125 -48.359375 L 40.8125 -62.78125 L 28.078125 -62.78125 L 28.078125 -79.9375 L 11.4375 -79.9375 L 11.4375 -62.78125 L 1.046875 -62.78125 L 1.046875 -48.359375 L 11.4375 -48.359375 L 11.4375 -15.59375 C 11.4375 -4.421875 17.671875 1.5625 29.25 1.5625 Z M 29.25 1.5625 "/></g></g></g><g fill="#FFFFFF" fill-opacity="1"><g transform="translate(468.370586, 442.664059)"><g><path d="M 80.84375 0 L 99.953125 -62.78125 L 82.796875 -62.78125 L 71.09375 -20.53125 L 57.328125 -62.78125 L 42.640625 -62.78125 L 28.859375 -20.53125 L 17.15625 -62.78125 L 0 -62.78125 L 19.109375 0 L 36.78125 0 L 50.046875 -42.765625 L 63.296875 0 Z M 80.84375 0 "/></g></g></g><g fill="#FFFFFF" fill-opacity="1"><g transform="translate(568.319571, 442.664059)"><g><path d="M 16.375 -72.015625 C 21.84375 -72.015625 26.25 -76.4375 26.25 -81.890625 C 26.25 -87.34375 21.84375 -91.765625 16.375 -91.765625 C 11.046875 -91.765625 6.5 -87.34375 6.5 -81.890625 C 6.5 -76.4375 11.046875 -72.015625 16.375 -72.015625 Z M 24.703125 0 L 24.703125 -62.78125 L 8.1875 -62.78125 L 8.1875 0 Z M 24.703125 0 "/></g></g></g><g fill="#FFFFFF" fill-opacity="1"><g transform="translate(601.202656, 442.664059)"><g><path d="M 24.703125 0 L 24.703125 -86.703125 L 8.1875 -86.703125 L 8.1875 0 Z M 24.703125 0 "/></g></g></g><g fill="#FFFFFF" fill-opacity="1"><g transform="translate(634.085742, 442.664059)"><g><path d="M 24.703125 0 L 24.703125 -86.703125 L 8.1875 -86.703125 L 8.1875 0 Z M 24.703125 0 "/></g></g></g><g fill="#FFFFFF" fill-opacity="1"><g transform="translate(666.968827, 442.664059)"><g><path d="M 2.734375 -8.1875 C 9.359375 -2.078125 19.890625 1.5625 30.8125 1.5625 C 48.21875 1.5625 57.96875 -7.015625 57.96875 -18.59375 C 57.96875 -34.1875 43.546875 -37.046875 32.75 -39.125 C 25.734375 -40.5625 20.796875 -41.984375 20.796875 -45.890625 C 20.796875 -49.53125 24.703125 -51.734375 30.671875 -51.734375 C 38.34375 -51.734375 45.5 -48.484375 49.265625 -44.453125 L 55.765625 -55.765625 C 49.65625 -60.703125 41.203125 -64.34375 30.546875 -64.34375 C 14.03125 -64.34375 4.8125 -55.109375 4.8125 -44.578125 C 4.8125 -29.640625 18.71875 -27.03125 29.5 -24.953125 C 36.65625 -23.53125 42.109375 -21.96875 42.109375 -17.546875 C 42.109375 -13.640625 38.734375 -11.171875 31.59375 -11.171875 C 23.78125 -11.171875 14.421875 -15.46875 9.875 -19.75 Z M 2.734375 -8.1875 "/></g></g></g></svg>