<svg version="1.0" preserveAspectRatio="xMidYMid meet" viewBox="55.125 30.200893223214283 651.945 104.59821555357142" zoomAndPan="magnify" xmlns:xlink="http://www.w3.org/1999/xlink" xmlns="http://www.w3.org/2000/svg" style="max-height: 500px" width="651.945" height="104.59821555357142"><defs><g/><clipPath id="f87f251843"><path clip-rule="nonzero" d="M 61.832031 121.511719 L 78.6875 121.511719 L 78.6875 130.160156 L 61.832031 130.160156 Z M 61.832031 121.511719"/></clipPath><clipPath id="ddbce45414"><path clip-rule="nonzero" d="M 141.398438 33.976562 L 150.570312 33.976562 L 150.570312 42.625 L 141.398438 42.625 Z M 141.398438 33.976562"/></clipPath></defs><path fill-rule="nonzero" fill-opacity="1" d="M 77.582031 91.847656 C 76.460938 94.851562 75.511719 97.625 74.664062 100.433594 C 79.285156 97.074219 84.78125 94.949219 91.121094 94.152344 C 103.21875 92.640625 113.972656 84.65625 119.410156 74.617188 L 112.402344 67.609375 L 119.203125 60.796875 L 124.019531 55.980469 C 126.089844 53.910156 128.425781 50.085938 130.894531 44.578125 C 103.964844 48.753906 87.476562 65.242188 77.578125 91.847656 Z M 126.015625 67.605469 L 130.832031 72.414062 C 126.015625 86.859375 111.574219 101.304688 92.316406 103.710938 C 79.464844 105.320312 71.4375 114.144531 68.234375 130.191406 L 58.613281 130.191406 C 63.429688 101.304688 73.058594 33.898438 145.277344 33.898438 C 140.460938 48.328125 135.65625 57.953125 130.847656 62.773438 Z M 126.015625 67.605469" fill="#000000"/><g clip-path="url(#f87f251843)"><path fill-rule="nonzero" fill-opacity="1" d="M 61.832031 121.511719 L 78.691406 121.511719 L 78.691406 130.160156 L 61.832031 130.160156 Z M 61.832031 121.511719" fill="#000000"/></g><g fill-opacity="1" fill="#000000"><g transform="translate(151.123061, 123.550441)"><g><path d="M 38.921875 -47.171875 C 43.285156 -45.640625 46.921875 -43.960938 49.828125 -42.140625 C 52.742188 -40.316406 55.070312 -38.375 56.8125 -36.3125 C 58.550781 -34.257812 59.800781 -32.117188 60.5625 -29.890625 C 61.332031 -27.671875 61.71875 -25.390625 61.71875 -23.046875 C 61.71875 -19.484375 60.945312 -16.207031 59.40625 -13.21875 C 57.875 -10.226562 55.710938 -7.597656 52.921875 -5.328125 C 50.140625 -3.066406 46.785156 -1.3125 42.859375 -0.0625 C 38.941406 1.1875 34.554688 1.8125 29.703125 1.8125 C 25.097656 1.8125 20.53125 1.265625 16 0.171875 C 11.476562 -0.910156 7.5625 -2.460938 4.25 -4.484375 L 4.96875 -22.3125 L 15.03125 -22.3125 L 17.46875 -7.765625 C 19.320312 -6.867188 21.21875 -6.15625 23.15625 -5.625 C 25.101562 -5.101562 27.25 -4.84375 29.59375 -4.84375 C 34.6875 -4.84375 38.644531 -6.015625 41.46875 -8.359375 C 44.300781 -10.710938 45.71875 -13.828125 45.71875 -17.703125 C 45.71875 -20.773438 44.726562 -23.203125 42.75 -24.984375 C 40.769531 -26.765625 37.597656 -28.460938 33.234375 -30.078125 L 27.28125 -32.25 C 20.082031 -34.84375 14.484375 -38.257812 10.484375 -42.5 C 6.484375 -46.75 4.484375 -51.90625 4.484375 -57.96875 C 4.484375 -61.363281 5.148438 -64.472656 6.484375 -67.296875 C 7.816406 -70.128906 9.753906 -72.578125 12.296875 -74.640625 C 14.847656 -76.703125 17.921875 -78.316406 21.515625 -79.484375 C 25.117188 -80.660156 29.222656 -81.25 33.828125 -81.25 C 38.273438 -81.25 42.457031 -80.703125 46.375 -79.609375 C 50.300781 -78.515625 53.71875 -76.957031 56.625 -74.9375 L 55.78125 -58.328125 L 45.84375 -58.328125 L 43.40625 -72.640625 C 41.789062 -73.285156 40.210938 -73.769531 38.671875 -74.09375 C 37.140625 -74.414062 35.566406 -74.578125 33.953125 -74.578125 C 29.910156 -74.578125 26.515625 -73.523438 23.765625 -71.421875 C 21.015625 -69.316406 19.640625 -66.328125 19.640625 -62.453125 C 19.640625 -59.054688 20.769531 -56.382812 23.03125 -54.4375 C 25.300781 -52.5 28.5 -50.804688 32.625 -49.359375 Z M 38.921875 -47.171875"/></g></g></g><g fill-opacity="1" fill="#000000"><g transform="translate(215.874483, 123.550441)"><g><path d="M 97.375 -52.875 L 89.125 -51.421875 L 68.390625 1.21875 L 61.609375 1.21875 L 46.9375 -38.8125 L 31.65625 1.21875 L 24.859375 1.21875 L 5.703125 -51.90625 L -0.609375 -52.875 L -0.609375 -58.203125 L 29.703125 -58.203125 L 29.703125 -52.875 L 22.5625 -51.90625 L 33.34375 -20.375 L 45.46875 -51.90625 L 38.203125 -52.875 L 38.203125 -58.203125 L 65.84375 -58.203125 L 65.84375 -52.875 L 58.8125 -51.78125 L 70.578125 -20.734375 L 81.96875 -51.53125 L 73.84375 -52.875 L 73.84375 -58.203125 L 97.375 -58.203125 Z M 97.375 -52.875"/></g></g></g><g fill-opacity="1" fill="#000000"><g transform="translate(314.456695, 123.550441)"><g><path d="M 20.125 -70.453125 C 17.375 -70.453125 15.007812 -71.359375 13.03125 -73.171875 C 11.050781 -74.992188 10.0625 -77.320312 10.0625 -80.15625 C 10.0625 -82.988281 11.050781 -85.289062 13.03125 -87.0625 C 15.007812 -88.84375 17.375 -89.734375 20.125 -89.734375 C 22.957031 -89.734375 25.34375 -88.84375 27.28125 -87.0625 C 29.21875 -85.289062 30.1875 -82.988281 30.1875 -80.15625 C 30.1875 -77.320312 29.21875 -74.992188 27.28125 -73.171875 C 25.34375 -71.359375 22.957031 -70.453125 20.125 -70.453125 Z M 35.65625 -5.328125 L 35.65625 0 L 4.609375 0 L 4.609375 -5.328125 L 12 -6.796875 C 12.082031 -9.867188 12.125 -13.097656 12.125 -16.484375 C 12.125 -19.878906 12.125 -22.875 12.125 -25.46875 L 12.125 -31.53125 C 12.125 -34.84375 12.082031 -37.609375 12 -39.828125 C 11.925781 -42.054688 11.847656 -44.382812 11.765625 -46.8125 L 3.640625 -47.90625 L 3.640625 -52.515625 L 27.15625 -60.390625 L 28.984375 -59.171875 L 28.625 -41.84375 L 28.625 -25.46875 C 28.625 -22.875 28.625 -19.859375 28.625 -16.421875 C 28.625 -12.992188 28.660156 -9.785156 28.734375 -6.796875 Z M 35.65625 -5.328125"/></g></g></g><g fill-opacity="1" fill="#000000"><g transform="translate(351.925214, 123.550441)"><g><path d="M 11.765625 -58.203125 C 12.410156 -64.347656 13.5625 -69.21875 15.21875 -72.8125 C 16.875 -76.414062 18.914062 -79.429688 21.34375 -81.859375 C 24.25 -84.679688 27.335938 -86.695312 30.609375 -87.90625 C 33.890625 -89.125 37.226562 -89.734375 40.625 -89.734375 C 44.101562 -89.734375 46.992188 -89.125 49.296875 -87.90625 C 51.597656 -86.695312 53.070312 -85.046875 53.71875 -82.953125 C 53.71875 -80.679688 53.007812 -78.773438 51.59375 -77.234375 C 50.175781 -75.703125 48.421875 -74.9375 46.328125 -74.9375 C 42.765625 -74.9375 39.328125 -77.523438 36.015625 -82.703125 L 35.046875 -84.28125 C 34.484375 -83.875 34 -83.46875 33.59375 -83.0625 C 33.1875 -82.65625 32.78125 -82.210938 32.375 -81.734375 C 30.519531 -79.390625 29.226562 -76.273438 28.5 -72.390625 C 27.769531 -68.515625 27.488281 -63.785156 27.65625 -58.203125 L 41.359375 -58.203125 L 41.359375 -50.453125 L 28.015625 -50.453125 L 28.015625 -25.46875 C 28.015625 -22.394531 28.035156 -19.363281 28.078125 -16.375 C 28.117188 -13.382812 28.175781 -10.351562 28.25 -7.28125 L 37.46875 -5.328125 L 37.46875 0 L 4 0 L 4 -5.328125 L 11.28125 -6.796875 C 11.363281 -9.867188 11.421875 -12.976562 11.453125 -16.125 C 11.492188 -19.28125 11.515625 -22.394531 11.515625 -25.46875 L 11.515625 -50.453125 L 3.515625 -50.453125 L 3.515625 -57.109375 Z M 11.765625 -58.203125"/></g></g></g><g fill-opacity="1" fill="#000000"><g transform="translate(394.729066, 123.550441)"><g><path d="M 43.296875 -7.390625 C 41.753906 -5.046875 39.523438 -3.023438 36.609375 -1.328125 C 33.703125 0.367188 30.066406 1.21875 25.703125 1.21875 C 20.773438 1.21875 16.875 0.00390625 14 -2.421875 C 11.132812 -4.847656 9.703125 -8.609375 9.703125 -13.703125 C 9.703125 -16.210938 9.722656 -18.375 9.765625 -20.1875 C 9.804688 -22.007812 9.828125 -24.09375 9.828125 -26.4375 L 9.828125 -50.453125 L 1.703125 -50.453125 L 1.703125 -57.109375 L 11.28125 -58.328125 L 14.671875 -75.1875 L 26.3125 -75.1875 L 26.3125 -58.203125 L 40.140625 -58.203125 L 40.140625 -50.453125 L 26.3125 -50.453125 L 26.3125 -17.09375 C 26.3125 -14.101562 26.894531 -11.941406 28.0625 -10.609375 C 29.238281 -9.273438 30.757812 -8.609375 32.625 -8.609375 C 33.425781 -8.609375 34.453125 -8.789062 35.703125 -9.15625 C 36.960938 -9.519531 38.320312 -10.304688 39.78125 -11.515625 Z M 43.296875 -7.390625"/></g></g></g><g fill-opacity="1" fill="#000000"><g transform="translate(437.896673, 123.550441)"><g><path d="M 97.375 -52.875 L 89.125 -51.421875 L 68.390625 1.21875 L 61.609375 1.21875 L 46.9375 -38.8125 L 31.65625 1.21875 L 24.859375 1.21875 L 5.703125 -51.90625 L -0.609375 -52.875 L -0.609375 -58.203125 L 29.703125 -58.203125 L 29.703125 -52.875 L 22.5625 -51.90625 L 33.34375 -20.375 L 45.46875 -51.90625 L 38.203125 -52.875 L 38.203125 -58.203125 L 65.84375 -58.203125 L 65.84375 -52.875 L 58.8125 -51.78125 L 70.578125 -20.734375 L 81.96875 -51.53125 L 73.84375 -52.875 L 73.84375 -58.203125 L 97.375 -58.203125 Z M 97.375 -52.875"/></g></g></g><g fill-opacity="1" fill="#000000"><g transform="translate(536.478875, 123.550441)"><g><path d="M 20.125 -70.453125 C 17.375 -70.453125 15.007812 -71.359375 13.03125 -73.171875 C 11.050781 -74.992188 10.0625 -77.320312 10.0625 -80.15625 C 10.0625 -82.988281 11.050781 -85.289062 13.03125 -87.0625 C 15.007812 -88.84375 17.375 -89.734375 20.125 -89.734375 C 22.957031 -89.734375 25.34375 -88.84375 27.28125 -87.0625 C 29.21875 -85.289062 30.1875 -82.988281 30.1875 -80.15625 C 30.1875 -77.320312 29.21875 -74.992188 27.28125 -73.171875 C 25.34375 -71.359375 22.957031 -70.453125 20.125 -70.453125 Z M 35.65625 -5.328125 L 35.65625 0 L 4.609375 0 L 4.609375 -5.328125 L 12 -6.796875 C 12.082031 -9.867188 12.125 -13.097656 12.125 -16.484375 C 12.125 -19.878906 12.125 -22.875 12.125 -25.46875 L 12.125 -31.53125 C 12.125 -34.84375 12.082031 -37.609375 12 -39.828125 C 11.925781 -42.054688 11.847656 -44.382812 11.765625 -46.8125 L 3.640625 -47.90625 L 3.640625 -52.515625 L 27.15625 -60.390625 L 28.984375 -59.171875 L 28.625 -41.84375 L 28.625 -25.46875 C 28.625 -22.875 28.625 -19.859375 28.625 -16.421875 C 28.625 -12.992188 28.660156 -9.785156 28.734375 -6.796875 Z M 35.65625 -5.328125"/></g></g></g><g fill-opacity="1" fill="#000000"><g transform="translate(573.947394, 123.550441)"><g><path d="M 34.796875 -5.328125 L 34.796875 0 L 4 0 L 4 -5.328125 L 11.28125 -6.796875 C 11.363281 -9.941406 11.421875 -13.070312 11.453125 -16.1875 C 11.492188 -19.300781 11.515625 -22.394531 11.515625 -25.46875 L 11.515625 -75.796875 L 2.421875 -77 L 2.421875 -81.859375 L 26.5625 -87.3125 L 28.25 -86.34375 L 27.765625 -69.125 L 27.765625 -25.46875 C 27.765625 -22.394531 27.785156 -19.28125 27.828125 -16.125 C 27.867188 -12.976562 27.929688 -9.867188 28.015625 -6.796875 Z M 34.796875 -5.328125"/></g></g></g><g fill-opacity="1" fill="#000000"><g transform="translate(611.415913, 123.550441)"><g><path d="M 34.796875 -5.328125 L 34.796875 0 L 4 0 L 4 -5.328125 L 11.28125 -6.796875 C 11.363281 -9.941406 11.421875 -13.070312 11.453125 -16.1875 C 11.492188 -19.300781 11.515625 -22.394531 11.515625 -25.46875 L 11.515625 -75.796875 L 2.421875 -77 L 2.421875 -81.859375 L 26.5625 -87.3125 L 28.25 -86.34375 L 27.765625 -69.125 L 27.765625 -25.46875 C 27.765625 -22.394531 27.785156 -19.28125 27.828125 -16.125 C 27.867188 -12.976562 27.929688 -9.867188 28.015625 -6.796875 Z M 34.796875 -5.328125"/></g></g></g><g fill-opacity="1" fill="#000000"><g transform="translate(648.884432, 123.550441)"><g><path d="M 36.140625 -35.890625 C 39.285156 -34.765625 41.910156 -33.53125 44.015625 -32.1875 C 46.117188 -30.851562 47.773438 -29.421875 48.984375 -27.890625 C 50.203125 -26.359375 51.050781 -24.722656 51.53125 -22.984375 C 52.019531 -21.242188 52.265625 -19.40625 52.265625 -17.46875 C 52.265625 -14.550781 51.65625 -11.921875 50.4375 -9.578125 C 49.226562 -7.234375 47.492188 -5.210938 45.234375 -3.515625 C 42.972656 -1.816406 40.265625 -0.503906 37.109375 0.421875 C 33.953125 1.347656 30.394531 1.8125 26.4375 1.8125 C 22.226562 1.8125 18.523438 1.328125 15.328125 0.359375 C 12.140625 -0.609375 8.847656 -2.0625 5.453125 -4 L 5.453125 -17.953125 L 14.796875 -17.953125 L 16.375 -7.390625 C 18.226562 -6.347656 19.941406 -5.601562 21.515625 -5.15625 C 23.097656 -4.707031 24.738281 -4.484375 26.4375 -4.484375 C 30.3125 -4.484375 33.160156 -5.128906 34.984375 -6.421875 C 36.804688 -7.722656 37.71875 -9.707031 37.71875 -12.375 C 37.71875 -13.5 37.535156 -14.484375 37.171875 -15.328125 C 36.804688 -16.179688 36.175781 -16.972656 35.28125 -17.703125 C 34.394531 -18.429688 33.203125 -19.160156 31.703125 -19.890625 C 30.210938 -20.617188 28.296875 -21.425781 25.953125 -22.3125 L 20.375 -24.5 C 15.519531 -26.351562 11.859375 -28.753906 9.390625 -31.703125 C 6.929688 -34.660156 5.703125 -38.28125 5.703125 -42.5625 C 5.703125 -47.894531 7.742188 -52.195312 11.828125 -55.46875 C 15.910156 -58.75 22.113281 -60.390625 30.4375 -60.390625 C 34.070312 -60.390625 37.304688 -59.984375 40.140625 -59.171875 C 42.972656 -58.367188 45.882812 -57.238281 48.875 -55.78125 L 48.140625 -42.4375 L 38.921875 -42.4375 L 37.109375 -52.515625 C 36.054688 -52.910156 34.960938 -53.269531 33.828125 -53.59375 C 32.703125 -53.914062 31.328125 -54.078125 29.703125 -54.078125 C 26.796875 -54.078125 24.453125 -53.410156 22.671875 -52.078125 C 20.898438 -50.742188 20.015625 -48.90625 20.015625 -46.5625 C 20.015625 -45.675781 20.175781 -44.847656 20.5 -44.078125 C 20.820312 -43.304688 21.425781 -42.554688 22.3125 -41.828125 C 23.195312 -41.109375 24.425781 -40.382812 26 -39.65625 C 27.582031 -38.925781 29.585938 -38.15625 32.015625 -37.34375 Z M 36.140625 -35.890625"/></g></g></g><g clip-path="url(#ddbce45414)"><path fill-rule="nonzero" fill-opacity="1" d="M 141.398438 33.976562 L 150.585938 33.976562 L 150.585938 42.625 L 141.398438 42.625 Z M 141.398438 33.976562" fill="#000000"/></g></svg>