<svg fill="none" height="55" viewBox="0 0 157 55" width="157" xmlns="http://www.w3.org/2000/svg"><path d="M255 0c0,0 -77,39 -102,115 -25,76 -98,111 -109,120 -11,9 -44,55 -44,55l28 -54c0,0 -2,11 -2,13 8,-17 50,-122 144,-204 -51,28 -115,125 -137,181 -16,-113 112,-231 222,-226z" fill="#3056d3" fill-rule="evenodd"/><text x="200" y="130" font-family="Proxima Nova" font-weight="bold" font-size="90" fill="black">
    Swiftwills
  </text><path clip-rule="evenodd" d= "M255 0c0,0 -77,39 -102,115 -25,76 -98,111 -109,120 -11,9 -44,55 -44,55l28 -54c0,0 -2,11 -2,13 8,-17 50,-122 144,-204 -51,28 -115,125 -137,181 -16,-113 112,-231 222,-226z"  fill="#3056d3" fill-rule="evenodd"/></svg> 
</svg>