<svg fill="none" height="55" viewBox="0 0 157 55" width="157" xmlns="http://www.w3.org/2000/svg">
  <defs>
    <clipPath id="4cb9a0279c">
      <path d="M 59.59375 126.429688 L 76.449219 126.429688 L 76.449219 130.160156 L 59.59375 130.160156 Z" clip-rule="nonzero"/>
    </clipPath>
    <clipPath id="4097a55fe7">
      <path d="M 141.398438 33.957031 L 149.855469 33.957031 L 149.855469 37.683594 L 141.398438 37.683594 Z" clip-rule="nonzero"/>
    </clipPath>
  </defs>

  <path fill="#000000" d="M 77.582031 91.847656 C 76.460938 94.851562 75.511719 97.625 74.664062 100.433594 C 79.285156 97.074219 84.78125 94.949219 91.121094 94.152344 C 103.21875 92.640625 113.972656 84.65625 119.410156 74.617188 L 112.402344 67.609375 L 119.203125 60.796875 L 124.019531 55.980469 C 126.089844 53.910156 128.425781 50.085938 130.894531 44.578125 C 103.964844 48.753906 87.476562 65.242188 77.578125 91.847656 Z M 126.015625 67.605469 L 130.832031 72.414062 C 126.015625 86.859375 111.574219 101.304688 92.316406 103.710938 C 79.464844 105.320312 71.4375 114.144531 68.234375 130.191406 L 58.613281 130.191406 C 63.429688 101.304688 73.058594 33.898438 145.277344 33.898438 C 140.460938 48.328125 135.65625 57.953125 130.847656 62.773438 Z M 126.015625 67.605469" fill-opacity="1" fill-rule="nonzero"/>

  <g clip-path="url(#4cb9a0279c)">
    <path fill="#000000" d="M 59.59375 126.429688 L 76.457031 126.429688 L 76.457031 130.160156 L 59.59375 130.160156 Z" fill-opacity="1" fill-rule="nonzero"/>
  </g>

  <g clip-path="url(#4097a55fe7)">
    <path fill="#000000" d="M 141.398438 33.957031 L 149.855469 33.957031 L 149.855469 37.683594 L 141.398438 37.683594 Z" fill-opacity="1" fill-rule="nonzero"/>
  </g>
</svg>
