<svg xmlns="http://www.w3.org/2000/svg" xmlns:xlink="http://www.w3.org/1999/xlink" zoomAndPan="magnify" preserveAspectRatio="xMidYMid meet" version="1.0" viewBox="34.52 13.05 674.71 130.46"><defs><g></g></defs><path fill="#000000" d="M 60.21875 91.554688 C 58.699219 95.625 57.414062 99.382812 56.265625 103.1875 C 62.527344 98.640625 69.96875 95.757812 78.5625 94.679688 C 94.953125 92.632812 109.519531 81.8125 116.890625 68.210938 L 107.394531 58.71875 L 116.609375 49.488281 L 123.132812 42.960938 C 125.9375 40.15625 129.101562 34.976562 132.449219 27.515625 C 95.964844 33.167969 73.625 55.511719 60.210938 91.554688 Z M 125.839844 58.714844 L 132.363281 65.230469 C 125.839844 84.796875 106.269531 104.367188 80.179688 107.628906 C 62.769531 109.808594 51.894531 121.765625 47.550781 143.503906 L 34.519531 143.503906 C 41.042969 104.367188 54.085938 13.046875 151.929688 13.046875 C 145.410156 32.59375 138.898438 45.632812 132.382812 52.164062 Z M 125.839844 58.714844 " fill-opacity="1" fill-rule="nonzero"></path><g fill="#FFFFFF" fill-opacity="1"><g transform="translate(145.939632, 136.621497)"><g><path d="M 2.640625 -12.421875 C 10.96875 -4.09375 23.140625 1.59375 40.0625 1.59375 C 63.859375 1.59375 75.359375 -10.578125 75.359375 -26.703125 C 75.359375 -46.265625 56.84375 -50.640625 42.3125 -53.9375 C 32.125 -56.3125 24.71875 -58.171875 24.71875 -64.125 C 24.71875 -69.40625 29.21875 -73.109375 37.671875 -73.109375 C 46.265625 -73.109375 55.796875 -70.0625 62.921875 -63.453125 L 73.375 -77.203125 C 64.640625 -85.265625 53.015625 -89.5 39 -89.5 C 18.25 -89.5 5.546875 -77.609375 5.546875 -62.921875 C 5.546875 -43.234375 24.0625 -39.265625 38.46875 -35.953125 C 48.65625 -33.578125 56.3125 -31.328125 56.3125 -24.71875 C 56.3125 -19.703125 51.296875 -14.8125 40.984375 -14.8125 C 28.8125 -14.8125 19.171875 -20.234375 12.953125 -26.703125 Z M 2.640625 -12.421875 "></path></g></g></g><g fill="#000000" fill-opacity="1"><g transform="translate(225.256571, 136.621497)"><g><path d="M 82.234375 0 L 101.671875 -63.859375 L 84.21875 -63.859375 L 72.3125 -20.890625 L 58.296875 -63.859375 L 43.359375 -63.859375 L 29.34375 -20.890625 L 17.453125 -63.859375 L 0 -63.859375 L 19.4375 0 L 37.40625 0 L 50.890625 -43.5 L 64.390625 0 Z M 82.234375 0 "></path></g></g></g><g fill="#000000" fill-opacity="1"><g transform="translate(326.914443, 136.621497)"><g><path d="M 16.65625 -73.234375 C 22.203125 -73.234375 26.703125 -77.734375 26.703125 -83.28125 C 26.703125 -88.84375 22.203125 -93.328125 16.65625 -93.328125 C 11.234375 -93.328125 6.609375 -88.84375 6.609375 -83.28125 C 6.609375 -77.734375 11.234375 -73.234375 16.65625 -73.234375 Z M 25.125 0 L 25.125 -63.859375 L 8.328125 -63.859375 L 8.328125 0 Z M 25.125 0 "></path></g></g></g><g fill="#000000" fill-opacity="1"><g transform="translate(360.359753, 136.621497)"><g><path d="M 41.90625 -49.171875 L 41.90625 -63.859375 L 28.953125 -63.859375 L 28.953125 -67.03125 C 28.953125 -73.109375 32.125 -76.28125 36.890625 -76.28125 C 38.875 -76.28125 40.84375 -75.890625 42.3125 -74.953125 L 45.75 -86.859375 C 42.703125 -88.4375 38.34375 -89.5 33.578125 -89.5 C 21.015625 -89.5 12.03125 -81.171875 12.03125 -67.296875 L 12.03125 -63.859375 L 1.453125 -63.859375 L 1.453125 -49.171875 L 12.03125 -49.171875 L 12.03125 0 L 28.953125 0 L 28.953125 -49.171875 Z M 41.90625 -49.171875 "></path></g></g></g><g fill="#000000" fill-opacity="1"><g transform="translate(403.587489, 136.621497)"><g><path d="M 29.75 1.59375 C 36.75 1.59375 41.25 -0.265625 43.765625 -2.515625 L 40.1875 -15.203125 C 39.265625 -14.28125 36.890625 -13.359375 34.375 -13.359375 C 30.671875 -13.359375 28.5625 -16.390625 28.5625 -20.359375 L 28.5625 -49.171875 L 41.515625 -49.171875 L 41.515625 -63.859375 L 28.5625 -63.859375 L 28.5625 -81.3125 L 11.640625 -81.3125 L 11.640625 -63.859375 L 1.0625 -63.859375 L 1.0625 -49.171875 L 11.640625 -49.171875 L 11.640625 -15.859375 C 11.640625 -4.5 17.984375 1.59375 29.75 1.59375 Z M 29.75 1.59375 "></path></g></g></g><g fill="#000000" fill-opacity="1"><g transform="translate(448.269356, 136.621497)"><g><path d="M 82.234375 0 L 101.671875 -63.859375 L 84.21875 -63.859375 L 72.3125 -20.890625 L 58.296875 -63.859375 L 43.359375 -63.859375 L 29.34375 -20.890625 L 17.453125 -63.859375 L 0 -63.859375 L 19.4375 0 L 37.40625 0 L 50.890625 -43.5 L 64.390625 0 Z M 82.234375 0 "></path></g></g></g><g fill="#000000" fill-opacity="1"><g transform="translate(549.927216, 136.621497)"><g><path d="M 16.65625 -73.234375 C 22.203125 -73.234375 26.703125 -77.734375 26.703125 -83.28125 C 26.703125 -88.84375 22.203125 -93.328125 16.65625 -93.328125 C 11.234375 -93.328125 6.609375 -88.84375 6.609375 -83.28125 C 6.609375 -77.734375 11.234375 -73.234375 16.65625 -73.234375 Z M 25.125 0 L 25.125 -63.859375 L 8.328125 -63.859375 L 8.328125 0 Z M 25.125 0 "></path></g></g></g><g fill="#000000" fill-opacity="1"><g transform="translate(583.372527, 136.621497)"><g><path d="M 25.125 0 L 25.125 -88.171875 L 8.328125 -88.171875 L 8.328125 0 Z M 25.125 0 "></path></g></g></g><g fill="#000000" fill-opacity="1"><g transform="translate(616.817837, 136.621497)"><g><path d="M 25.125 0 L 25.125 -88.171875 L 8.328125 -88.171875 L 8.328125 0 Z M 25.125 0 "></path></g></g></g><g fill="#000000" fill-opacity="1"><g transform="translate(650.263148, 136.621497)"><g><path d="M 2.78125 -8.328125 C 9.515625 -2.109375 20.234375 1.59375 31.328125 1.59375 C 49.046875 1.59375 58.96875 -7.140625 58.96875 -18.90625 C 58.96875 -34.765625 44.28125 -37.671875 33.3125 -39.796875 C 26.171875 -41.25 21.15625 -42.703125 21.15625 -46.671875 C 21.15625 -50.375 25.125 -52.609375 31.203125 -52.609375 C 39 -52.609375 46.265625 -49.3125 50.109375 -45.21875 L 56.71875 -56.71875 C 50.5 -61.734375 41.90625 -65.4375 31.0625 -65.4375 C 14.28125 -65.4375 4.890625 -56.046875 4.890625 -45.34375 C 4.890625 -30.140625 19.03125 -27.5 30.015625 -25.390625 C 37.28125 -23.921875 42.828125 -22.34375 42.828125 -17.84375 C 42.828125 -13.875 39.390625 -11.375 32.125 -11.375 C 24.1875 -11.375 14.671875 -15.734375 10.046875 -20.09375 Z M 2.78125 -8.328125 "></path></g></g></g></svg>