<svg version="1.0" preserveAspectRatio="xMidYMid meet" viewBox="55.125 30.200893223214283 651.945 104.59821555357142" zoomAndPan="magnify" xmlns:xlink="http://www.w3.org/1999/xlink" xmlns="http://www.w3.org/2000/svg" style="max-height: 500px" width="651.945" height="104.59821555357142"><defs><g/><clipPath id="f87f251843"><path clip-rule="nonzero" d="M 61.832031 121.511719 L 78.6875 121.511719 L 78.6875 130.160156 L 61.832031 130.160156 Z M 61.832031 121.511719"/></clipPath><clipPath id="ddbce45414"><path clip-rule="nonzero" d="M 141.398438 33.976562 L 150.570312 33.976562 L 150.570312 42.625 L 141.398438 42.625 Z M 141.398438 33.976562"/></clipPath></defs><path fill-rule="nonzero" fill-opacity="1" d="M 77.582031 91.847656 C 76.460938 94.851562 75.511719 97.625 74.664062 100.433594 C 79.285156 97.074219 84.78125 94.949219 91.121094 94.152344 C 103.21875 92.640625 113.972656 84.65625 119.410156 74.617188 L 112.402344 67.609375 L 119.203125 60.796875 L 124.019531 55.980469 C 126.089844 53.910156 128.425781 50.085938 130.894531 44.578125 C 103.964844 48.753906 87.476562 65.242188 77.578125 91.847656 Z M 126.015625 67.605469 L 130.832031 72.414062 C 126.015625 86.859375 111.574219 101.304688 92.316406 103.710938 C 79.464844 105.320312 71.4375 114.144531 68.234375 130.191406 L 58.613281 130.191406 C 63.429688 101.304688 73.058594 33.898438 145.277344 33.898438 C 140.460938 48.328125 135.65625 57.953125 130.847656 62.773438 Z M 126.015625 67.605469" fill="#000000"/><g clip-path="url(#f87f251843)"><path fill-rule="nonzero" fill-opacity="1" d="M 61.832031 121.511719 L 78.691406 121.511719 L 78.691406 130.160156 L 61.832031 130.160156 Z M 61.832031 121.511719" fill="#000000"/></svg>